<?xml version="1.0" encoding="UTF-8"?>
<svg id="Layer_1" xmlns="http://www.w3.org/2000/svg" viewBox="0 0 1444 904">
  <defs>
    <style>
      .cls-1 {
        fill: #fbb040;
      }

      .cls-1, .cls-2, .cls-3, .cls-4 {
        stroke: #000;
        stroke-miterlimit: 10;
      }

      .cls-1, .cls-2, .cls-4 {
        stroke-width: 4px;
      }

      .cls-5 {
        letter-spacing: -.07em;
      }

      .cls-5, .cls-6, .cls-7 {
        isolation: isolate;
      }

      .cls-5, .cls-7 {
        font-family: Superclarendon-Bold, Superclarendon;
        font-size: 198.01px;
        font-weight: 700;
      }

      .cls-2 {
        fill: #fff;
      }

      .cls-8 {
        fill: #e6e7e8;
      }

      .cls-4 {
        fill: #00aeef;
      }
    </style>
  </defs>
  <rect class="cls-8" x="2" y="2" width="1440" height="900"/>
  <path class="cls-2" d="M717.83,192.5c-198.71,29.33-404.24,134.75-404.24,134.75,0,0,290.63,146.42,404.24,139.26,113.61-7.16,412.59-136.94,412.59-136.94,0,0-251.42-160.85-412.59-137.07h0Z"/>
  <ellipse class="cls-3" cx="722" cy="328.43" rx="145.69" ry="123.57"/>
  <g class="cls-6">
    <text class="cls-7" transform="translate(319.08 684.43) scale(.89 1)"><tspan x="0" y="0">Deja </tspan></text>
    <text class="cls-5" transform="translate(868.06 684.43) scale(.89 1)"><tspan x="0" y="0">V</tspan></text>
    <text class="cls-7" transform="translate(1010.44 684.43) scale(.89 1)"><tspan x="0" y="0">u</tspan></text>
  </g>
  <rect class="cls-4" x="2" y="2" width="1440" height="120.41"/>
  <rect class="cls-4" x="2" y="781.59" width="1440" height="120.41"/>
  <rect class="cls-4" x="1052.21" y="391.79" width="659.17" height="120.41" transform="translate(1833.79 -929.79) rotate(90)"/>
  <rect class="cls-4" x="-267.38" y="391.79" width="659.17" height="120.41" transform="translate(514.21 389.79) rotate(90)"/>
  <rect class="cls-1" x="-211.13" y="391.79" width="659.17" height="120.41" transform="translate(570.45 333.55) rotate(90)"/>
  <rect class="cls-1" x="992" y="391.79" width="659.17" height="120.41" transform="translate(1773.59 -869.59) rotate(90)"/>
</svg>